{
  "accessors": [
    {
      "bufferView": 2,
      "byteOffset": 0,
      "componentType": 5126,
      "count": 9992,
      "max": [0.2631747424602509, 0.5542271137237549, 0.07805658876895905, 1],
      "min": [0.0697270855307579, 0.4368127584457397, 0.06575388461351395, 1],
      "name": "accessor_color_m0-PolyPaper9_-40210",
      "type": "VEC4"
    },
    {
      "bufferView": 2,
      "byteOffset": 159872,
      "componentType": 5126,
      "count": 9984,
      "max": [0.2631747424602509, 0.5542271137237549, 0.07805658876895905, 1],
      "min": [0.0697270855307579, 0.4368127584457397, 0.06575388461351395, 1],
      "name": "accessor_color_m1-PolyPaper9_-40212",
      "type": "VEC4"
    },
    {
      "bufferView": 2,
      "byteOffset": 319616,
      "componentType": 5126,
      "count": 730,
      "max": [0.2631747424602509, 0.5542271137237549, 0.07805658876895905, 1],
      "min": [0.0697270855307579, 0.4368127584457397, 0.06575388461351395, 1],
      "name": "accessor_color_m2-PolyPaper10_-40442",
      "type": "VEC4"
    },
    {
      "bufferView": 0,
      "byteOffset": 0,
      "componentType": 5123,
      "count": 12360,
      "max": [9991],
      "min": [0],
      "name": "accessor_indices_0_m0-PolyPaper9_-40210",
      "type": "SCALAR"
    },
    {
      "bufferView": 0,
      "byteOffset": 24720,
      "componentType": 5123,
      "count": 12360,
      "max": [9983],
      "min": [0],
      "name": "accessor_indices_0_m1-PolyPaper9_-40212",
      "type": "SCALAR"
    },
    {
      "bufferView": 0,
      "byteOffset": 49440,
      "componentType": 5123,
      "count": 900,
      "max": [729],
      "min": [0],
      "name": "accessor_indices_0_m2-PolyPaper10_-40442",
      "type": "SCALAR"
    },
    {
      "bufferView": 1,
      "byteOffset": 119904,
      "componentType": 5126,
      "count": 9992,
      "max": [0.9998972, 0.8874326, 0.9998972],
      "min": [-0.9995031, -0.9996792, -0.9998971],
      "name": "accessor_normal_m0-PolyPaper9_-40210",
      "type": "VEC3"
    },
    {
      "bufferView": 1,
      "byteOffset": 359616,
      "componentType": 5126,
      "count": 9984,
      "max": [0.9998972, 0.8874406, 0.9992869],
      "min": [-0.9995031, -0.9996792, -0.9998972],
      "name": "accessor_normal_m1-PolyPaper9_-40212",
      "type": "VEC3"
    },
    {
      "bufferView": 1,
      "byteOffset": 488184,
      "componentType": 5126,
      "count": 730,
      "max": [0.9998972, 0.8845426, 0.9966432],
      "min": [-0.9950864, -0.9996791, -0.9942755],
      "name": "accessor_normal_m2-PolyPaper10_-40442",
      "type": "VEC3"
    },
    {
      "bufferView": 1,
      "byteOffset": 0,
      "componentType": 5126,
      "count": 9992,
      "max": [1.048402, 0.8488706, 0.4217315],
      "min": [-1.215711, -0.0146708, -1.76587],
      "name": "accessor_position_m0-PolyPaper9_-40210",
      "type": "VEC3"
    },
    {
      "bufferView": 1,
      "byteOffset": 239808,
      "componentType": 5126,
      "count": 9984,
      "max": [1.547075, 0.8819552000000001, 0.6816607],
      "min": [-1.233961, 0.01845749, -2.161682],
      "name": "accessor_position_m1-PolyPaper9_-40212",
      "type": "VEC3"
    },
    {
      "bufferView": 1,
      "byteOffset": 479424,
      "componentType": 5126,
      "count": 730,
      "max": [-0.2913478, 0.875677, 0.4343852],
      "min": [-0.8177209, 0.1065588, -0.1634201],
      "name": "accessor_position_m2-PolyPaper10_-40442",
      "type": "VEC3"
    }
  ],
  "asset": {
    "copyright": "Unknown",
    "extras": {
      "GOOGLE_processor_version": 294144208
    },
    "generator": "glTF 1-to-2 Upgrader for Google Blocks",
    "version": "2.0"
  },
  "bufferViews": [
    {
      "buffer": 0,
      "byteLength": 51240,
      "byteOffset": 0,
      "name": "ushortBufferView",
      "target": 34963
    },
    {
      "buffer": 0,
      "byteLength": 496944,
      "byteOffset": 51240,
      "byteStride": 12,
      "name": "vec3BufferView",
      "target": 34962
    },
    {
      "buffer": 0,
      "byteLength": 331296,
      "byteOffset": 548184,
      "byteStride": 16,
      "name": "vec4BufferView",
      "target": 34962
    }
  ],
  "buffers": [
    {
      "byteLength": 879480,
      "name": "model",
      "uri": "model.bin"
    }
  ],
  "cameras": [
    {
      "perspective": {
        "yfov": 0.7853981633974483,
        "znear": 0.1000000014901161
      },
      "type": "perspective"
    }
  ],
  "extensions": {
    "KHR_lights_punctual": {
      "lights": [
        {
          "color": [1, 0, 0],
          "intensity": 0,
          "name": "headLight",
          "type": "directional"
        },
        {
          "color": [1, 0, 0],
          "intensity": 0,
          "name": "keyLight",
          "type": "directional"
        }
      ]
    }
  },
  "extensionsUsed": [
    "GOOGLE_backgrounds",
    "GOOGLE_camera_settings",
    "KHR_lights_punctual"
  ],
  "extras": {
    "GOOGLE_initial_camera_motion": {
      "motionPath": "FULL_ROTATION"
    },
    "GOOGLE_lighting_rig": {
      "disableShadows": false
    }
  },
  "materials": [
    {
      "alphaMode": "OPAQUE",
      "doubleSided": false,
      "name": "BlocksPaper",
      "pbrMetallicRoughness": {
        "baseColorFactor": [1, 1, 1, 1],
        "metallicFactor": 0,
        "roughnessFactor": 0.6
      }
    },
    {
      "alphaMode": "BLEND",
      "doubleSided": false,
      "name": "BlocksGlass",
      "pbrMetallicRoughness": {
        "baseColorFactor": [0.2, 0.2, 1, 0.3],
        "metallicFactor": 1,
        "roughnessFactor": 0.4
      }
    },
    {
      "alphaMode": "OPAQUE",
      "doubleSided": true,
      "name": "BlocksGem",
      "pbrMetallicRoughness": {
        "baseColorFactor": [1, 0.4, 1, 1],
        "metallicFactor": 0,
        "roughnessFactor": 0.1
      }
    }
  ],
  "meshes": [
    {
      "name": "mesh_m0-PolyPaper9_-40210",
      "primitives": [
        {
          "attributes": {
            "COLOR_0": 0,
            "NORMAL": 6,
            "POSITION": 9
          },
          "indices": 3,
          "material": 0,
          "mode": 4
        }
      ]
    },
    {
      "name": "mesh_m1-PolyPaper9_-40212",
      "primitives": [
        {
          "attributes": {
            "COLOR_0": 1,
            "NORMAL": 7,
            "POSITION": 10
          },
          "indices": 4,
          "material": 0,
          "mode": 4
        }
      ]
    },
    {
      "name": "mesh_m2-PolyPaper10_-40442",
      "primitives": [
        {
          "attributes": {
            "COLOR_0": 2,
            "NORMAL": 8,
            "POSITION": 11
          },
          "indices": 5,
          "material": 0,
          "mode": 4
        }
      ]
    }
  ],
  "nodes": [
    {
      "mesh": 2,
      "name": "node_MeshObject1430771392-PolyPaper10"
    },
    {
      "mesh": 0,
      "name": "node_MeshObject254429056-PolyPaper9"
    },
    {
      "mesh": 1,
      "name": "node_MeshObject773149120-PolyPaper9"
    },
    {
      "children": [4]
    },
    {
      "children": [5],
      "extras": {
        "isTransformNode": 1
      },
      "translation": [
        0.1183776678684324,
        0.3613386210635957,
        -0.6340123898601676
      ]
    },
    {
      "children": [1, 2, 0],
      "translation": [
        -0.1183776678684324,
        -0.3613386210635957,
        0.6340123898601676
      ]
    },
    {
      "camera": 0,
      "children": [7],
      "rotation": [
        -0.2517563121013167,
        0.1472019813953706,
        0.03877505158674806,
        0.9557441244207919
      ],
      "translation": [0.7449091672897339, 1.408357620239258, 1.430768728256226]
    },
    {
      "extensions": {
        "KHR_lights_punctual": {
          "light": 0
        }
      },
      "extras": {
        "isHeadLight": 1
      },
      "name": "headLightNode",
      "translation": [-12.29378741708462, 6.146893708542311, 6.146893708542311]
    },
    {
      "extensions": {
        "KHR_lights_punctual": {
          "light": 1
        }
      },
      "extras": {
        "isKeyLight": 1
      },
      "name": "keyLightNode",
      "rotation": [
        -0.7505326882858236,
        -0.3752663441429118,
        0,
        0.5439447166468927
      ],
      "scale": [0, 0, 1.789403336001885],
      "translation": [-1.698151635746181, 3.977772767230433, -2.425799526468505]
    }
  ],
  "scene": 0,
  "scenes": [
    {
      "extensions": {
        "GOOGLE_backgrounds": {
          "color": [0.3647058823529412, 0.2509803921568627, 0.2156862745098039]
        },
        "GOOGLE_camera_settings": {}
      },
      "extras": {
        "GOOGLE_camera_index": {
          "cameraIndex": 0,
          "nodeIndex": 6
        },
        "GOOGLE_geometry_data": {
          "stats": {
            "centroid": [
              0.09125170025570359,
              0.3989660952266631,
              -0.6363961904666205
            ],
            "radius": 1.771686471288995,
            "stdev": 0.9256974168242277
          },
          "visualCenterPoint": [
            0.1183776678684324,
            0.3613386210635957,
            -0.6340123898601676
          ]
        },
        "GOOGLE_hemi_light": {
          "groundColor": [0, 0, 0]
        }
      },
      "name": "defaultScene",
      "nodes": [3, 6, 8]
    }
  ]
}
